PathFileType	4	(X/Y/Z)	/Users/itak/Documents/Research/Walk-IL/dataset/trc/00191_00008.trc
DataRate	CameraRate	NumFrames	NumMarkers	Units	OrigDataRate	OrigDataStartFrame	OrigNumFrames
100.000000	100.000000	4	53	mm	100.000000	99	795
Frame#	Time	RPSI			LPSI			L3			STRN			T10			C7			CLAV			RBAK			LBAK			LSHO			LUPA			LAEL			LAOL			LWTS			LWPS			LFRA			LIFD			LHPS			LHTS			RSHO			RUPA			RAEL			RAOL			RWTS			RWPS			RFRA			RIFD			RHTS			RHPS			RBHD			LFHD			RFHD			LBHD			LHIP			RHIP			RASI			LASI			LKNE			LTHI			LANK			LTIP			LTOE			LMT1			LMT5			LHEE			RKNE			RTHI			RANK			RTIP			RTOE			RMT1			RMT5			RHEE			
		X1	Y1	Z1	X2	Y2	Z2	X3	Y3	Z3	X4	Y4	Z4	X5	Y5	Z5	X6	Y6	Z6	X7	Y7	Z7	X8	Y8	Z8	X9	Y9	Z9	X10	Y10	Z10	X11	Y11	Z11	X12	Y12	Z12	X13	Y13	Z13	X14	Y14	Z14	X15	Y15	Z15	X16	Y16	Z16	X17	Y17	Z17	X18	Y18	Z18	X19	Y19	Z19	X20	Y20	Z20	X21	Y21	Z21	X22	Y22	Z22	X23	Y23	Z23	X24	Y24	Z24	X25	Y25	Z25	X26	Y26	Z26	X27	Y27	Z27	X28	Y28	Z28	X29	Y29	Z29	X30	Y30	Z30	X31	Y31	Z31	X32	Y32	Z32	X33	Y33	Z33	X34	Y34	Z34	X35	Y35	Z35	X36	Y36	Z36	X37	Y37	Z37	X38	Y38	Z38	X39	Y39	Z39	X40	Y40	Z40	X41	Y41	Z41	X42	Y42	Z42	X43	Y43	Z43	X44	Y44	Z44	X45	Y45	Z45	X46	Y46	Z46	X47	Y47	Z47	X48	Y48	Z48	X49	Y49	Z49	X50	Y50	Z50	X51	Y51	Z51	X52	Y52	Z52	X53	Y53	Z53	

100	0.99	187.2631988525391	1026.308471679688	949.03857421875	158.2524719238281	1030.065307617188	1068.689453125	171.0228424072266	1068.054077148438	1007.418395996094	-96.75426483154297	1262.73095703125	951.2115478515625	192.6548461914062	1233.292114257812	1024.106201171875	104.3741607666016	1495.778564453125	1013.241027832031	-81.44890594482422	1379.044311523438	963.5376586914062	210.5379180908203	1325.991333007812	929.8447875976562	89.74378204345703	1474.476806640625	1112.204223632812	-1.616461515426636	1458.142333984375	1170.310302734375	24.10041618347168	1332.343627929688	1257.62939453125	22.95086288452148	1117.525268554688	1283.935302734375	84.45823669433594	1101.814208984375	1222.908569335938	-51.93691635131836	870.6817016601562	1259.8173828125	20.37554931640625	866.0799560546875	1314.8330078125	18.91846466064453	1009.005859375	1305.673828125	-29.00968360900879	711.3033447265625	1236.153076171875	11.1413402557373	794.7108764648438	1314.62646484375	-57.36369705200195	793.1802368164062	1285.189331054688	91.72162628173828	1467.009033203125	823.7991943359375	136.3181457519531	1402.838623046875	766.13916015625	199.0834808349609	1120.044555664062	731.7725830078125	165.3971405029297	1109.52587890625	823.7725219726562	93.40096282958984	879.1005249023438	690.5916748046875	182.2281188964844	873.256591796875	679.1626586914062	192.3289794921875	1047.432983398438	705.2570190429688	94.09461975097656	689.1674194335938	707.137451171875	85.23474884033203	782.575439453125	672.712158203125	166.8415374755859	787.2256469726562	670.990478515625	36.95005416870117	1647.725708007812	913.649658203125	-173.9102783203125	1661.697509765625	963.3742065429688	-123.3369903564453	1649.45458984375	843.8840942382812	-12.45933628082275	1669.241088867188	1039.53271484375	36.46772003173828	970.2481079101562	1163.316284179688	62.76673126220703	986.809814453125	793.711669921875	-27.67275619506836	1012.6669921875	831.3858642578125	-77.94709014892578	1001.228393554688	1085.971435546875	98.31929779052734	483.6663208007812	1115.151611328125	65.24470520019531	623.689208984375	1141.069580078125	281.71484375	45.31183242797852	1118.779052734375	184.6516571044922	269.3013610839844	1129.0390625	59.44240570068359	43.21540069580078	1099.003051757812	109.4737319946289	45.71083450317383	1049.635986328125	175.9497375488281	35.98859786987305	1162.415161132812	330.830078125	43.80771255493164	1047.386474609375	-133.9092407226562	534.7352905273438	758.0654296875	-40.40609741210938	786.1997680664062	752.4903564453125	-269.0055541992188	52.20575332641602	742.3959350585938	-194.4557342529297	429.7680053710938	752.7448120117188	-443.1206359863281	165.1222076416016	680.1467895507812	-426.1270141601562	140.6216583251953	741.4325561523438	-344.1312866210938	91.01780700683594	664.2025756835938	-256.1351623535156	42.07686233520508	823.95361328125	
101	1	181.4183654785156	1024.646728515625	947.2022705078125	152.450439453125	1028.6181640625	1066.857421875	165.2637481689453	1066.491088867188	1005.53857421875	-102.5115432739258	1261.410278320312	948.4631958007812	187.0435485839844	1231.708984375	1022.003723144531	98.92777252197266	1494.2294921875	1010.595520019531	-87.04302215576172	1377.691040039062	960.64697265625	205.0186462402344	1324.1923828125	927.60888671875	84.08070373535156	1473.098388671875	1109.581909179688	-7.441934108734131	1456.8955078125	1167.496459960938	17.9642391204834	1331.173706054688	1254.99365234375	16.29684448242188	1116.485595703125	1281.845458984375	77.98522186279297	1100.518676757812	1221.009399414062	-58.746826171875	869.637939453125	1258.309448242188	13.55513572692871	865.1552124023438	1313.430908203125	12.0922737121582	1008.058532714844	1303.888427734375	-35.92065048217773	710.23583984375	1235.344604492188	4.251901626586914	793.8238525390625	1313.502563476562	-64.2364501953125	792.2625122070312	1283.938354492188	86.61621856689453	1465.2236328125	821.1607055664062	131.3123321533203	1400.923095703125	763.7139282226562	194.1625213623047	1118.162109375	730.3978881835938	159.6993865966797	1107.629760742188	822.1429443359375	90.13275909423828	876.7400512695312	688.2611694335938	179.1053466796875	871.4379272460938	677.7581176757812	187.9542999267578	1045.633056640625	703.8981323242188	91.92520141601562	686.795654296875	704.8484497070312	82.77355194091797	780.122802734375	670.3455810546875	164.3237762451172	785.3241577148438	669.4409790039062	32.64488983154297	1646.108032226562	911.0728759765625	-178.3466033935547	1661.0498046875	959.4392700195312	-127.1082382202148	1648.589721679688	840.26416015625	-17.32503318786621	1667.8046875	1036.604125976562	30.57538795471191	969.117431640625	1161.480712890625	57.09506988525391	984.9427490234375	791.8421020507812	-33.48396682739258	1010.925903320312	829.2884521484375	-83.77686309814453	999.9424438476562	1083.897216796875	94.481201171875	482.8179321289062	1114.076904296875	60.75292205810547	622.7866821289062	1139.747802734375	281.5805358886719	45.73065567016602	1118.747192382812	182.6993865966797	269.2777099609375	1128.65478515625	59.36818695068359	43.11803436279297	1099.1044921875	109.4337387084961	45.70382308959961	1049.683837890625	175.9526824951172	35.89156341552734	1162.53271484375	330.8022155761719	44.6654167175293	1047.453002929688	-139.2562255859375	533.3263549804688	755.9358520507812	-45.66262817382812	784.3713989257812	750.130126953125	-279.0698852539062	51.94189071655273	739.7747192382812	-200.5830841064453	429.0147399902344	750.1671752929688	-451.1366882324219	166.2933654785156	674.2616577148438	-435.2025756835938	141.9640960693359	736.0426635742188	-352.6280212402344	91.15288543701172	660.160400390625	-267.4022521972656	42.18881607055664	821.5671997070312	
102	1.01	175.4446563720703	1023.057250976562	945.1875	146.5814971923828	1027.23876953125	1064.851196289062	159.3861389160156	1064.99560546875	1003.484741210938	-108.4067993164062	1260.135620117188	945.5726318359375	181.2785034179688	1230.185913085938	1019.749450683594	93.33853149414062	1492.7412109375	1007.795104980469	-92.78413391113281	1376.391845703125	957.6034545898438	199.3360137939453	1322.448486328125	925.2196655273438	78.27371978759766	1471.783325195312	1106.807861328125	-13.42432022094727	1455.716430664062	1164.52294921875	11.66462993621826	1330.062133789062	1252.199584960938	9.493629455566406	1115.499755859375	1279.557495117188	71.36260986328125	1099.281494140625	1218.905517578125	-65.73678588867188	868.6625366210938	1256.56787109375	6.553632736206055	864.2799682617188	1311.786987304688	5.104411125183105	1007.157470703125	1301.881225585938	-43.06467056274414	709.2225952148438	1234.249389648438	-2.827517509460449	792.9806518554688	1312.121215820312	-71.28952789306641	791.42822265625	1282.442260742188	81.36597442626953	1463.499389648438	818.3706665039062	126.1662368774414	1399.072265625	761.146240234375	189.1145935058594	1116.337768554688	728.9170532226562	153.8192596435547	1105.798217773438	820.3873901367188	86.62978363037109	874.5087890625	685.7763061523438	175.7479858398438	869.672607421875	676.29150390625	183.4338836669922	1043.885498046875	702.4303588867188	89.35428619384766	684.5471801757812	702.4126586914062	80.03187561035156	777.8028564453125	667.8204345703125	161.5307159423828	783.4915161132812	667.8226928710938	28.25394248962402	1644.528076171875	908.3516235351562	-182.8589630126953	1660.514892578125	955.3924560546875	-130.9700164794922	1647.819091796875	836.5337524414062	-22.2515926361084	1666.419677734375	1033.540893554688	24.6622142791748	968.0223999023438	1159.513916015625	51.22814178466797	983.158935546875	789.843505859375	-39.45900344848633	1009.24267578125	827.1112670898438	-89.67595672607422	998.6951293945312	1081.772583007812	90.54609680175781	482.0134887695312	1112.969360351562	56.23258209228516	621.9441528320312	1138.3701171875	281.4244079589844	46.27267074584961	1118.713256835938	180.70751953125	269.3518981933594	1128.314331054688	59.30848693847656	43.02837753295898	1099.212158203125	109.400032043457	45.6948356628418	1049.747192382812	175.9503936767578	35.79580307006836	1162.64892578125	330.7756958007812	45.73210906982422	1047.539916992188	-144.8504791259766	531.9395141601562	753.6600341796875	-51.17727661132812	782.6927490234375	747.6985473632812	-288.0961608886719	51.34909057617188	737.4556274414062	-206.7435607910156	428.0711059570312	747.5108642578125	-458.3963623046875	166.6267852783203	668.822998046875	-443.4360961914062	142.5392608642578	731.03857421875	-360.2149658203125	90.71155548095703	656.524169921875	-277.5416564941406	42.0007209777832	819.513916015625	
103	1.02	169.3411102294922	1021.550109863281	942.9793701171875	140.6391296386719	1025.934448242188	1062.653198242188	153.3798980712891	1063.578369140625	1001.23876953125	-114.4428939819336	1258.916870117188	942.5429077148438	175.3498077392578	1228.730834960938	1017.334655761719	87.60639190673828	1491.32666015625	1004.835388183594	-98.67578887939453	1375.15478515625	954.4047241210938	193.49169921875	1320.767578125	922.6727905273438	72.32310485839844	1470.54443359375	1103.876953125	-19.56368255615234	1454.616577148438	1161.389526367188	5.201746463775635	1329.019897460938	1249.246337890625	2.543490648269653	1114.575927734375	1277.069213867188	64.59149169921875	1098.112060546875	1216.595703125	-72.89640045166016	867.763671875	1254.580688476562	-0.6235139966011047	863.4613037109375	1309.892211914062	-2.03937554359436	1006.310485839844	1299.649047851562	-50.40903472900391	708.269287109375	1232.853271484375	-10.09735774993896	792.1905517578125	1310.47021484375	-78.51557159423828	790.6918334960938	1280.696166992188	75.96400451660156	1461.841064453125	815.4227294921875	120.8732070922852	1397.289428710938	758.4310913085938	183.9444122314453	1114.576904296875	727.308349609375	147.7781372070312	1104.035400390625	818.4898071289062	82.88461303710938	872.4039916992188	683.1494750976562	172.1406707763672	867.9591064453125	674.7520141601562	178.7587280273438	1042.19140625	700.8350830078125	86.36284637451172	682.4263916015625	699.8515014648438	76.97933959960938	775.6246337890625	665.1445922851562	158.4403533935547	781.7260131835938	666.1336669921875	23.78078079223633	1642.990356445312	905.4798583984375	-187.4514617919922	1660.106689453125	951.2239990234375	-134.9247589111328	1647.156494140625	832.6843872070312	-27.25363540649414	1665.095581054688	1030.340454101562	18.72161102294922	966.9760131835938	1157.403076171875	45.15631484985352	981.4679565429688	787.7064208984375	-45.60930252075195	1007.625427246094	824.847412109375	-95.64448547363281	997.4984130859375	1079.595703125	86.54347991943359	481.2896118164062	1111.839111328125	51.690185546875	621.1885986328125	1136.9375	281.2417602539062	46.94781875610352	1118.680786132812	178.6941375732422	269.5592956542969	1128.027221679688	59.26667785644531	42.95222473144531	1099.322998046875	109.3690185546875	45.68336868286133	1049.824951171875	175.9380645751953	35.7055778503418	1162.757934570312	330.7405090332031	47.02745819091797	1047.647094726562	-150.6912384033203	530.5806274414062	751.2347412109375	-56.95623016357422	781.1751098632812	745.2053833007812	-296.0696716308594	50.42756271362305	735.44873046875	-212.9432983398438	426.9495544433594	744.7931518554688	-464.9254150390625	166.129150390625	663.8877563476562	-450.844970703125	142.3355255126953	726.47705078125	-366.9036865234375	89.71336364746094	653.3125610351562	-286.5416259765625	41.49231338500977	817.78564453125	
